<svg width="202" height="45" viewBox="0 0 202 45" fill="none" xmlns="http://www.w3.org/2000/svg">
<g filter="url(#filter0_d_7_17)">
<path d="M21.592 36L14.2 22.944H11.032V36H4.312V2.496H16.888C19.48 2.496 21.688 2.96 23.512 3.888C25.336 4.784 26.696 6.016 27.592 7.584C28.52 9.12 28.984 10.848 28.984 12.768C28.984 14.976 28.344 16.976 27.064 18.768C25.784 20.528 23.88 21.744 21.352 22.416L29.368 36H21.592ZM11.032 17.904H16.648C18.472 17.904 19.832 17.472 20.728 16.608C21.624 15.712 22.072 14.48 22.072 12.912C22.072 11.376 21.624 10.192 20.728 9.36C19.832 8.496 18.472 8.064 16.648 8.064H11.032V17.904ZM59.782 22.128C59.782 23.088 59.718 23.952 59.59 24.72H40.15C40.31 26.64 40.982 28.144 42.166 29.232C43.35 30.32 44.806 30.864 46.534 30.864C49.03 30.864 50.806 29.792 51.862 27.648H59.11C58.342 30.208 56.87 32.32 54.694 33.984C52.518 35.616 49.846 36.432 46.678 36.432C44.118 36.432 41.814 35.872 39.766 34.752C37.75 33.6 36.166 31.984 35.014 29.904C33.894 27.824 33.334 25.424 33.334 22.704C33.334 19.952 33.894 17.536 35.014 15.456C36.134 13.376 37.702 11.776 39.718 10.656C41.734 9.536 44.054 8.976 46.678 8.976C49.206 8.976 51.462 9.52 53.446 10.608C55.462 11.696 57.014 13.248 58.102 15.264C59.222 17.248 59.782 19.536 59.782 22.128ZM52.822 20.208C52.79 18.48 52.166 17.104 50.95 16.08C49.734 15.024 48.246 14.496 46.486 14.496C44.822 14.496 43.414 15.008 42.262 16.032C41.142 17.024 40.454 18.416 40.198 20.208H52.822ZM62.959 22.704C62.959 19.952 63.519 17.552 64.639 15.504C65.759 13.424 67.311 11.824 69.295 10.704C71.279 9.552 73.551 8.976 76.111 8.976C79.407 8.976 82.127 9.808 84.271 11.472C86.447 13.104 87.903 15.408 88.639 18.384H81.391C81.007 17.232 80.351 16.336 79.423 15.696C78.527 15.024 77.407 14.688 76.063 14.688C74.143 14.688 72.623 15.392 71.503 16.8C70.383 18.176 69.823 20.144 69.823 22.704C69.823 25.232 70.383 27.2 71.503 28.608C72.623 29.984 74.143 30.672 76.063 30.672C78.783 30.672 80.559 29.456 81.391 27.024H88.639C87.903 29.904 86.447 32.192 84.271 33.888C82.095 35.584 79.375 36.432 76.111 36.432C73.551 36.432 71.279 35.872 69.295 34.752C67.311 33.6 65.759 32 64.639 29.952C63.519 27.872 62.959 25.456 62.959 22.704ZM118.282 22.128C118.282 23.088 118.218 23.952 118.09 24.72H98.65C98.81 26.64 99.482 28.144 100.666 29.232C101.85 30.32 103.306 30.864 105.034 30.864C107.53 30.864 109.306 29.792 110.362 27.648H117.61C116.842 30.208 115.37 32.32 113.194 33.984C111.018 35.616 108.346 36.432 105.178 36.432C102.618 36.432 100.314 35.872 98.266 34.752C96.25 33.6 94.666 31.984 93.514 29.904C92.394 27.824 91.834 25.424 91.834 22.704C91.834 19.952 92.394 17.536 93.514 15.456C94.634 13.376 96.202 11.776 98.218 10.656C100.234 9.536 102.554 8.976 105.178 8.976C107.706 8.976 109.962 9.52 111.946 10.608C113.962 11.696 115.514 13.248 116.602 15.264C117.722 17.248 118.282 19.536 118.282 22.128ZM111.322 20.208C111.29 18.48 110.666 17.104 109.45 16.08C108.234 15.024 106.746 14.496 104.986 14.496C103.322 14.496 101.914 15.008 100.762 16.032C99.642 17.024 98.954 18.416 98.698 20.208H111.322ZM129.907 13.296C130.771 12.016 131.955 10.976 133.459 10.176C134.995 9.376 136.739 8.976 138.691 8.976C140.963 8.976 143.011 9.536 144.835 10.656C146.691 11.776 148.147 13.376 149.203 15.456C150.291 17.504 150.835 19.888 150.835 22.608C150.835 25.328 150.291 27.744 149.203 29.856C148.147 31.936 146.691 33.552 144.835 34.704C143.011 35.856 140.963 36.432 138.691 36.432C136.707 36.432 134.963 36.048 133.459 35.28C131.987 34.48 130.803 33.456 129.907 32.208V36H123.187V0.48H129.907V13.296ZM143.971 22.608C143.971 21.008 143.635 19.632 142.963 18.48C142.323 17.296 141.459 16.4 140.371 15.792C139.315 15.184 138.163 14.88 136.915 14.88C135.699 14.88 134.547 15.2 133.459 15.84C132.403 16.448 131.539 17.344 130.867 18.528C130.227 19.712 129.907 21.104 129.907 22.704C129.907 24.304 130.227 25.696 130.867 26.88C131.539 28.064 132.403 28.976 133.459 29.616C134.547 30.224 135.699 30.528 136.915 30.528C138.163 30.528 139.315 30.208 140.371 29.568C141.459 28.928 142.323 28.016 142.963 26.832C143.635 25.648 143.971 24.24 143.971 22.608ZM153.99 22.608C153.99 19.92 154.518 17.536 155.574 15.456C156.662 13.376 158.118 11.776 159.942 10.656C161.798 9.536 163.862 8.976 166.134 8.976C168.118 8.976 169.846 9.376 171.318 10.176C172.822 10.976 174.022 11.984 174.918 13.2V9.408H181.686V36H174.918V32.112C174.054 33.36 172.854 34.4 171.318 35.232C169.814 36.032 168.07 36.432 166.086 36.432C163.846 36.432 161.798 35.856 159.942 34.704C158.118 33.552 156.662 31.936 155.574 29.856C154.518 27.744 153.99 25.328 153.99 22.608ZM174.918 22.704C174.918 21.072 174.598 19.68 173.958 18.528C173.318 17.344 172.454 16.448 171.366 15.84C170.278 15.2 169.11 14.88 167.862 14.88C166.614 14.88 165.462 15.184 164.406 15.792C163.35 16.4 162.486 17.296 161.814 18.48C161.174 19.632 160.854 21.008 160.854 22.608C160.854 24.208 161.174 25.616 161.814 26.832C162.486 28.016 163.35 28.928 164.406 29.568C165.494 30.208 166.646 30.528 167.862 30.528C169.11 30.528 170.278 30.224 171.366 29.616C172.454 28.976 173.318 28.08 173.958 26.928C174.598 25.744 174.918 24.336 174.918 22.704ZM196.938 1.92L196.17 25.104H190.506L189.69 1.92H196.938ZM193.482 36.336C192.266 36.336 191.258 35.968 190.458 35.232C189.69 34.464 189.306 33.52 189.306 32.4C189.306 31.28 189.69 30.352 190.458 29.616C191.258 28.848 192.266 28.464 193.482 28.464C194.666 28.464 195.642 28.848 196.41 29.616C197.178 30.352 197.562 31.28 197.562 32.4C197.562 33.52 197.178 34.464 196.41 35.232C195.642 35.968 194.666 36.336 193.482 36.336Z" fill="#6C63FF"/>
<path d="M21.592 36L20.7218 36.4927L21.009 37H21.592V36ZM14.2 22.944L15.0702 22.4513L14.783 21.944H14.2V22.944ZM11.032 22.944V21.944H10.032V22.944H11.032ZM11.032 36V37H12.032V36H11.032ZM4.312 36H3.312V37H4.312V36ZM4.312 2.496V1.496H3.312V2.496H4.312ZM23.512 3.888L23.0585 4.77936L23.0711 4.78555L23.512 3.888ZM27.592 7.584L26.7238 8.08014L26.7298 8.0907L26.7361 8.10112L27.592 7.584ZM27.064 18.768L27.8728 19.3562L27.8777 19.3492L27.064 18.768ZM21.352 22.416L21.0951 21.4496L19.8205 21.7884L20.4908 22.9242L21.352 22.416ZM29.368 36V37H31.1192L30.2292 35.4918L29.368 36ZM11.032 17.904H10.032V18.904H11.032V17.904ZM20.728 16.608L21.4221 17.3278L21.4287 17.3215L21.4351 17.3151L20.728 16.608ZM20.728 9.36L20.0339 10.0798L20.0406 10.0864L20.0476 10.0928L20.728 9.36ZM11.032 8.064V7.064H10.032V8.064H11.032ZM22.4622 35.5073L15.0702 22.4513L13.3298 23.4367L20.7218 36.4927L22.4622 35.5073ZM14.2 21.944H11.032V23.944H14.2V21.944ZM10.032 22.944V36H12.032V22.944H10.032ZM11.032 35H4.312V37H11.032V35ZM5.312 36V2.496H3.312V36H5.312ZM4.312 3.496H16.888V1.496H4.312V3.496ZM16.888 3.496C19.3633 3.496 21.4074 3.93924 23.0585 4.77928L23.9655 2.99672C21.9686 1.98076 19.5967 1.496 16.888 1.496V3.496ZM23.0711 4.78555C24.739 5.60489 25.939 6.70687 26.7238 8.08014L28.4602 7.08786C27.453 5.32513 25.933 3.96311 23.9529 2.99044L23.0711 4.78555ZM26.7361 8.10112C27.5632 9.47014 27.984 11.017 27.984 12.768H29.984C29.984 10.679 29.4768 8.76986 28.4479 7.06688L26.7361 8.10112ZM27.984 12.768C27.984 14.7682 27.4088 16.5648 26.2503 18.1868L27.8777 19.3492C29.2792 17.3872 29.984 15.1838 29.984 12.768H27.984ZM26.2553 18.1798C25.1362 19.7186 23.4477 20.8242 21.0951 21.4496L21.6089 23.3824C24.3123 22.6638 26.4318 21.3374 27.8727 19.3562L26.2553 18.1798ZM20.4908 22.9242L28.5068 36.5082L30.2292 35.4918L22.2132 21.9078L20.4908 22.9242ZM29.368 35H21.592V37H29.368V35ZM11.032 18.904H16.648V16.904H11.032V18.904ZM16.648 18.904C18.6114 18.904 20.2685 18.4402 21.4221 17.3278L20.0339 15.8882C19.3955 16.5038 18.3326 16.904 16.648 16.904V18.904ZM21.4351 17.3151C22.5611 16.1891 23.072 14.6785 23.072 12.912H21.072C21.072 14.2815 20.6869 15.2349 20.0209 15.9009L21.4351 17.3151ZM23.072 12.912C23.072 11.174 22.5579 9.69459 21.4085 8.62721L20.0476 10.0928C20.6901 10.6894 21.072 11.578 21.072 12.912H23.072ZM21.4221 8.64016C20.2685 7.52775 18.6114 7.064 16.648 7.064V9.064C18.3326 9.064 19.3955 9.46425 20.0339 10.0798L21.4221 8.64016ZM16.648 7.064H11.032V9.064H16.648V7.064ZM10.032 8.064V17.904H12.032V8.064H10.032ZM59.59 24.72V25.72H60.4371L60.5764 24.8844L59.59 24.72ZM40.15 24.72V23.72H39.0632L39.1535 24.803L40.15 24.72ZM42.166 29.232L41.4894 29.9683L41.4894 29.9683L42.166 29.232ZM51.862 27.648V26.648H51.2398L50.9649 27.2061L51.862 27.648ZM59.11 27.648L60.0678 27.9353L60.454 26.648H59.11V27.648ZM54.694 33.984L55.294 34.784L55.3015 34.7784L54.694 33.984ZM39.766 34.752L39.2699 35.6202L39.278 35.6249L39.2862 35.6294L39.766 34.752ZM35.014 29.904L34.1335 30.3781L34.1392 30.3885L35.014 29.904ZM35.014 15.456L34.1335 14.9819L34.1335 14.9819L35.014 15.456ZM39.718 10.656L40.2036 11.5302L40.2036 11.5302L39.718 10.656ZM53.446 10.608L52.9652 11.4848L52.9711 11.488L53.446 10.608ZM58.102 15.264L57.222 15.7389L57.2265 15.7473L57.2312 15.7556L58.102 15.264ZM52.822 20.208V21.208H53.8407L53.8218 20.1895L52.822 20.208ZM50.95 16.08L50.2943 16.835L50.3001 16.84L50.3059 16.8449L50.95 16.08ZM42.262 16.032L42.925 16.7806L42.9264 16.7794L42.262 16.032ZM40.198 20.208L39.2081 20.0666L39.045 21.208H40.198V20.208ZM58.782 22.128C58.782 23.0451 58.7208 23.8527 58.6036 24.5556L60.5764 24.8844C60.7153 24.0513 60.782 23.1309 60.782 22.128H58.782ZM59.59 23.72H40.15V25.72H59.59V23.72ZM39.1535 24.803C39.3299 26.9208 40.0851 28.6779 41.4894 29.9683L42.8426 28.4957C41.8789 27.6101 41.2901 26.3592 41.1465 24.637L39.1535 24.803ZM41.4894 29.9683C42.8724 31.2392 44.5758 31.864 46.534 31.864V29.864C45.0362 29.864 43.8276 29.4008 42.8426 28.4957L41.4894 29.9683ZM46.534 31.864C47.927 31.864 49.1818 31.5638 50.2548 30.9161C51.3303 30.2669 52.1597 29.3068 52.7591 28.0898L50.9649 27.2061C50.5083 28.1332 49.9217 28.7811 49.2212 29.2039C48.5182 29.6282 47.637 29.864 46.534 29.864V31.864ZM51.862 28.648H59.11V26.648H51.862V28.648ZM58.1522 27.3607C57.4463 29.7137 56.0998 31.6501 54.0866 33.1896L55.3015 34.7784C57.6402 32.9899 59.2377 30.7023 60.0678 27.9353L58.1522 27.3607ZM54.094 33.184C52.1185 34.6656 49.6666 35.432 46.678 35.432V37.432C50.0254 37.432 52.9175 36.5664 55.294 34.784L54.094 33.184ZM46.678 35.432C44.2691 35.432 42.1328 34.9066 40.2458 33.8746L39.2862 35.6294C41.4952 36.8374 43.9669 37.432 46.678 37.432V35.432ZM40.2621 33.8838C38.4091 32.8249 36.9543 31.3434 35.8888 29.4195L34.1392 30.3885C35.3777 32.6246 37.0909 34.3751 39.2699 35.6202L40.2621 33.8838ZM35.8945 29.4299C34.8641 27.5163 34.334 25.2838 34.334 22.704H32.334C32.334 25.5642 32.9239 28.1317 34.1335 30.3781L35.8945 29.4299ZM34.334 22.704C34.334 20.0901 34.865 17.842 35.8945 15.9301L34.1335 14.9819C32.923 17.23 32.334 19.8139 32.334 22.704H34.334ZM35.8945 15.9301C36.9262 14.0141 38.359 12.5549 40.2036 11.5302L39.2324 9.78184C37.045 10.9971 35.3418 12.7379 34.1335 14.9819L35.8945 15.9301ZM40.2036 11.5302C42.0516 10.5035 44.2002 9.976 46.678 9.976V7.976C43.9078 7.976 41.4164 8.5685 39.2324 9.78184L40.2036 11.5302ZM46.678 9.976C49.058 9.976 51.1452 10.4868 52.9652 11.4848L53.9268 9.73119C51.7788 8.55324 49.354 7.976 46.678 7.976V9.976ZM52.9711 11.488C54.8154 12.4834 56.2266 13.8946 57.222 15.7389L58.982 14.7891C57.8014 12.6014 56.1086 10.9086 53.9209 9.72798L52.9711 11.488ZM57.2312 15.7556C58.2554 17.5699 58.782 19.6842 58.782 22.128H60.782C60.782 19.3878 60.1886 16.9261 58.9728 14.7724L57.2312 15.7556ZM53.8218 20.1895C53.785 18.2014 53.0516 16.5424 51.5941 15.3151L50.3059 16.8449C51.2804 17.6656 51.795 18.7586 51.8222 20.2265L53.8218 20.1895ZM51.6057 15.325C50.1904 14.0959 48.4628 13.496 46.486 13.496V15.496C48.0292 15.496 49.2776 15.9521 50.2943 16.835L51.6057 15.325ZM46.486 13.496C44.5982 13.496 42.9479 14.0844 41.5976 15.2846L42.9264 16.7794C43.8801 15.9316 45.0458 15.496 46.486 15.496V13.496ZM41.599 15.2834C40.2661 16.4639 39.4903 18.0912 39.2081 20.0666L41.188 20.3494C41.4178 18.7408 42.0179 17.5841 42.925 16.7806L41.599 15.2834ZM40.198 21.208H52.822V19.208H40.198V21.208ZM64.639 15.504L65.5164 15.9838L65.5195 15.9781L64.639 15.504ZM69.295 10.704L69.7866 11.5749L69.7971 11.5688L69.295 10.704ZM84.271 11.472L83.6579 12.262L83.6644 12.267L83.671 12.272L84.271 11.472ZM88.639 18.384V19.384H89.9164L89.6098 18.1439L88.639 18.384ZM81.391 18.384L80.4423 18.7002L80.6702 19.384H81.391V18.384ZM79.423 15.696L78.823 16.496L78.8389 16.5079L78.8553 16.5192L79.423 15.696ZM71.503 16.8L72.2786 17.4313L72.2856 17.4225L71.503 16.8ZM71.503 28.608L70.7204 29.2306L70.7274 29.2393L71.503 28.608ZM81.391 27.024V26.024H80.6762L80.4448 26.7003L81.391 27.024ZM88.639 27.024L89.6079 27.2716L89.9267 26.024H88.639V27.024ZM84.271 33.888L84.8857 34.6767L84.8857 34.6767L84.271 33.888ZM69.295 34.752L68.7928 35.6169L68.8034 35.6228L69.295 34.752ZM64.639 29.952L63.7585 30.4261L63.7616 30.4318L64.639 29.952ZM63.959 22.704C63.959 20.0896 64.4901 17.8604 65.5164 15.9838L63.7616 15.0242C62.5479 17.2436 61.959 19.8144 61.959 22.704H63.959ZM65.5195 15.9781C66.5534 14.058 67.9734 12.5984 69.7866 11.5748L68.8034 9.83318C66.6486 11.0496 64.9646 12.79 63.7585 15.0299L65.5195 15.9781ZM69.7971 11.5688C71.6115 10.5153 73.7065 9.976 76.111 9.976V7.976C73.3955 7.976 70.9465 8.5887 68.7929 9.83921L69.7971 11.5688ZM76.111 9.976C79.234 9.976 81.7244 10.7614 83.6579 12.262L84.8841 10.682C82.5296 8.85462 79.58 7.976 76.111 7.976V9.976ZM83.671 12.272C85.6392 13.7481 86.9801 15.8417 87.6682 18.6241L89.6098 18.1439C88.8259 14.9743 87.2548 12.4599 84.871 10.672L83.671 12.272ZM88.639 17.384H81.391V19.384H88.639V17.384ZM82.3397 18.0678C81.8927 16.7268 81.1115 15.6457 79.9907 14.8728L78.8553 16.5192C79.5905 17.0263 80.1213 17.7372 80.4423 18.7002L82.3397 18.0678ZM80.023 14.896C78.9214 14.0698 77.5789 13.688 76.063 13.688V15.688C77.2351 15.688 78.1326 15.9782 78.823 16.496L80.023 14.896ZM76.063 13.688C73.8618 13.688 72.0443 14.5131 70.7204 16.1775L72.2856 17.4225C73.2017 16.2709 74.4242 15.688 76.063 15.688V13.688ZM70.7274 16.1687C69.41 17.7873 68.823 20.0133 68.823 22.704H70.823C70.823 20.2747 71.356 18.5647 72.2786 17.4313L70.7274 16.1687ZM68.823 22.704C68.823 25.3682 69.4124 27.5861 70.7204 29.2305L72.2856 27.9855C71.3536 26.8139 70.823 25.0958 70.823 22.704H68.823ZM70.7274 29.2393C72.0545 30.8696 73.8704 31.672 76.063 31.672V29.672C74.4156 29.672 73.1915 29.0984 72.2786 27.9767L70.7274 29.2393ZM76.063 31.672C77.5714 31.672 78.9065 31.3338 80 30.5851C81.0982 29.8331 81.8654 28.7268 82.3372 27.3477L80.4448 26.7003C80.0846 27.7532 79.5478 28.4709 78.8701 28.9349C78.1875 29.4022 77.2746 29.672 76.063 29.672V31.672ZM81.391 28.024H88.639V26.024H81.391V28.024ZM87.6701 26.7764C86.9845 29.4595 85.6436 31.5503 83.6563 33.0993L84.8857 34.6767C87.2504 32.8337 88.8215 30.3485 89.6079 27.2716L87.6701 26.7764ZM83.6563 33.0993C81.6866 34.6344 79.1946 35.432 76.111 35.432V37.432C79.5554 37.432 82.5034 36.5336 84.8857 34.6767L83.6563 33.0993ZM76.111 35.432C73.7016 35.432 71.6028 34.9064 69.7866 33.8812L68.8034 35.6228C70.9552 36.8376 73.4004 37.432 76.111 37.432V35.432ZM69.7971 33.8872C67.9739 32.8286 66.5504 31.363 65.5164 29.4722L63.7616 30.4318C64.9676 32.637 66.6481 34.3714 68.7929 35.6168L69.7971 33.8872ZM65.5195 29.4779C64.49 27.566 63.959 25.3179 63.959 22.704H61.959C61.959 25.5941 62.548 28.178 63.7585 30.4261L65.5195 29.4779ZM118.09 24.72V25.72H118.937L119.076 24.8844L118.09 24.72ZM98.65 24.72V23.72H97.5632L97.6535 24.803L98.65 24.72ZM100.666 29.232L99.9894 29.9683L99.9894 29.9683L100.666 29.232ZM110.362 27.648V26.648H109.74L109.465 27.2061L110.362 27.648ZM117.61 27.648L118.568 27.9353L118.954 26.648H117.61V27.648ZM113.194 33.984L113.794 34.784L113.801 34.7784L113.194 33.984ZM98.266 34.752L97.7699 35.6202L97.778 35.6249L97.7862 35.6294L98.266 34.752ZM93.514 29.904L92.6335 30.3781L92.6392 30.3885L93.514 29.904ZM93.514 15.456L92.6335 14.9819L92.6335 14.9819L93.514 15.456ZM98.218 10.656L98.7036 11.5302L98.7036 11.5302L98.218 10.656ZM111.946 10.608L111.465 11.4848L111.471 11.488L111.946 10.608ZM116.602 15.264L115.722 15.7389L115.726 15.7473L115.731 15.7556L116.602 15.264ZM111.322 20.208V21.208H112.341L112.322 20.1895L111.322 20.208ZM109.45 16.08L108.794 16.835L108.8 16.84L108.806 16.8449L109.45 16.08ZM100.762 16.032L101.425 16.7806L101.426 16.7794L100.762 16.032ZM98.698 20.208L97.7081 20.0666L97.545 21.208H98.698V20.208ZM117.282 22.128C117.282 23.0451 117.221 23.8527 117.104 24.5556L119.076 24.8844C119.215 24.0513 119.282 23.1309 119.282 22.128H117.282ZM118.09 23.72H98.65V25.72H118.09V23.72ZM97.6535 24.803C97.8299 26.9208 98.5851 28.6779 99.9894 29.9683L101.343 28.4957C100.379 27.6101 99.7901 26.3592 99.6465 24.637L97.6535 24.803ZM99.9894 29.9683C101.372 31.2392 103.076 31.864 105.034 31.864V29.864C103.536 29.864 102.328 29.4008 101.343 28.4957L99.9894 29.9683ZM105.034 31.864C106.427 31.864 107.682 31.5638 108.755 30.9161C109.83 30.2669 110.66 29.3068 111.259 28.0898L109.465 27.2061C109.008 28.1332 108.422 28.7811 107.721 29.2039C107.018 29.6282 106.137 29.864 105.034 29.864V31.864ZM110.362 28.648H117.61V26.648H110.362V28.648ZM116.652 27.3607C115.946 29.7137 114.6 31.6501 112.587 33.1896L113.801 34.7784C116.14 32.9899 117.738 30.7023 118.568 27.9353L116.652 27.3607ZM112.594 33.184C110.619 34.6656 108.167 35.432 105.178 35.432V37.432C108.525 37.432 111.417 36.5664 113.794 34.784L112.594 33.184ZM105.178 35.432C102.769 35.432 100.633 34.9066 98.7458 33.8746L97.7862 35.6294C99.9952 36.8374 102.467 37.432 105.178 37.432V35.432ZM98.7621 33.8838C96.9091 32.8249 95.4543 31.3434 94.3888 29.4195L92.6392 30.3885C93.8777 32.6246 95.5909 34.3751 97.7699 35.6202L98.7621 33.8838ZM94.3945 29.4299C93.3641 27.5163 92.834 25.2838 92.834 22.704H90.834C90.834 25.5642 91.4239 28.1317 92.6335 30.3781L94.3945 29.4299ZM92.834 22.704C92.834 20.0901 93.365 17.842 94.3945 15.9301L92.6335 14.9819C91.423 17.23 90.834 19.8139 90.834 22.704H92.834ZM94.3945 15.9301C95.4262 14.0141 96.859 12.5549 98.7036 11.5302L97.7324 9.78184C95.545 10.9971 93.8418 12.7379 92.6335 14.9819L94.3945 15.9301ZM98.7036 11.5302C100.552 10.5035 102.7 9.976 105.178 9.976V7.976C102.408 7.976 99.9164 8.5685 97.7324 9.78184L98.7036 11.5302ZM105.178 9.976C107.558 9.976 109.645 10.4868 111.465 11.4848L112.427 9.73119C110.279 8.55324 107.854 7.976 105.178 7.976V9.976ZM111.471 11.488C113.315 12.4834 114.727 13.8946 115.722 15.7389L117.482 14.7891C116.301 12.6014 114.609 10.9086 112.421 9.72798L111.471 11.488ZM115.731 15.7556C116.755 17.5699 117.282 19.6842 117.282 22.128H119.282C119.282 19.3878 118.689 16.9261 117.473 14.7724L115.731 15.7556ZM112.322 20.1895C112.285 18.2014 111.552 16.5424 110.094 15.3151L108.806 16.8449C109.78 17.6656 110.295 18.7586 110.322 20.2265L112.322 20.1895ZM110.106 15.325C108.69 14.0959 106.963 13.496 104.986 13.496V15.496C106.529 15.496 107.778 15.9521 108.794 16.835L110.106 15.325ZM104.986 13.496C103.098 13.496 101.448 14.0844 100.098 15.2846L101.426 16.7794C102.38 15.9316 103.546 15.496 104.986 15.496V13.496ZM100.099 15.2834C98.7661 16.4639 97.9903 18.0912 97.7081 20.0666L99.688 20.3494C99.9178 18.7408 100.518 17.5841 101.425 16.7806L100.099 15.2834ZM98.698 21.208H111.322V19.208H98.698V21.208ZM129.907 13.296H128.907V16.5649L130.736 13.8555L129.907 13.296ZM133.459 10.176L132.997 9.28905L132.989 9.29313L133.459 10.176ZM144.835 10.656L144.312 11.5082L144.318 11.5122L144.835 10.656ZM149.203 15.456L148.311 15.9087L148.316 15.917L148.32 15.9252L149.203 15.456ZM149.203 29.856L148.314 29.398L148.311 29.4033L149.203 29.856ZM144.835 34.704L144.308 33.8543L144.301 33.8585L144.835 34.704ZM133.459 35.28L132.981 36.1586L132.993 36.1648L133.004 36.1706L133.459 35.28ZM129.907 32.208L130.719 31.6248L128.907 29.1005V32.208H129.907ZM129.907 36V37H130.907V36H129.907ZM123.187 36H122.187V37H123.187V36ZM123.187 0.48V-0.52H122.187V0.48H123.187ZM129.907 0.48H130.907V-0.52H129.907V0.48ZM142.963 18.48L142.083 18.9555L142.091 18.9698L142.099 18.9839L142.963 18.48ZM140.371 15.792L139.872 16.6587L139.883 16.6649L140.371 15.792ZM133.459 15.84L133.958 16.7067L133.966 16.7019L133.459 15.84ZM130.867 18.528L129.997 18.0344L129.992 18.0434L129.987 18.0525L130.867 18.528ZM130.867 26.88L129.987 27.3555L129.992 27.3646L129.997 27.3736L130.867 26.88ZM133.459 29.616L132.941 30.4712L132.956 30.4803L132.971 30.4889L133.459 29.616ZM140.371 29.568L139.864 28.706L139.853 28.7128L140.371 29.568ZM142.963 26.832L142.093 26.3384L142.088 26.3474L142.083 26.3565L142.963 26.832ZM130.736 13.8555C131.499 12.7246 132.554 11.7901 133.929 11.0589L132.989 9.29313C131.356 10.1619 130.043 11.3074 129.078 12.7365L130.736 13.8555ZM133.921 11.0629C135.297 10.3462 136.879 9.976 138.691 9.976V7.976C136.599 7.976 134.693 8.40579 132.997 9.28908L133.921 11.0629ZM138.691 9.976C140.79 9.976 142.655 10.4908 144.312 11.5082L145.358 9.80383C143.367 8.58115 141.136 7.976 138.691 7.976V9.976ZM144.318 11.5122C146.002 12.5281 147.333 13.9824 148.311 15.9087L150.095 15.0033C148.961 12.7696 147.38 11.0239 145.352 9.79981L144.318 11.5122ZM148.32 15.9252C149.319 17.8056 149.835 20.0233 149.835 22.608H151.835C151.835 19.7527 151.263 17.2024 150.086 14.9868L148.32 15.9252ZM149.835 22.608C149.835 25.1919 149.319 27.447 148.314 29.398L150.092 30.314C151.263 28.041 151.835 25.4641 151.835 22.608H149.835ZM148.311 29.4033C147.332 31.3317 145.998 32.8054 144.308 33.8544L145.362 35.5536C147.384 34.2986 148.962 32.5403 150.095 30.3087L148.311 29.4033ZM144.301 33.8585C142.646 34.9041 140.785 35.432 138.691 35.432V37.432C141.141 37.432 143.377 36.8079 145.369 35.5495L144.301 33.8585ZM138.691 35.432C136.838 35.432 135.254 35.0739 133.914 34.3894L133.004 36.1706C134.672 37.0221 136.576 37.432 138.691 37.432V35.432ZM133.937 34.4014C132.585 33.6667 131.52 32.7396 130.719 31.6248L129.095 32.7912C130.086 34.1724 131.389 35.2933 132.981 36.1586L133.937 34.4014ZM128.907 32.208V36H130.907V32.208H128.907ZM129.907 35H123.187V37H129.907V35ZM124.187 36V0.48H122.187V36H124.187ZM123.187 1.48H129.907V-0.52H123.187V1.48ZM128.907 0.48V13.296H130.907V0.48H128.907ZM144.971 22.608C144.971 20.8664 144.604 19.309 143.827 17.9761L142.099 18.9839C142.666 19.955 142.971 21.1496 142.971 22.608H144.971ZM143.843 18.0045C143.12 16.6674 142.126 15.6271 140.859 14.9191L139.883 16.6649C140.792 17.1729 141.526 17.9246 142.083 18.9555L143.843 18.0045ZM140.87 14.9254C139.658 14.2278 138.334 13.88 136.915 13.88V15.88C137.992 15.88 138.972 16.1402 139.872 16.6586L140.87 14.9254ZM136.915 13.88C135.514 13.88 134.188 14.2513 132.952 14.9781L133.966 16.7019C134.906 16.1487 135.884 15.88 136.915 15.88V13.88ZM132.96 14.9734C131.732 15.6805 130.747 16.7138 129.997 18.0344L131.737 19.0216C132.331 17.9742 133.074 17.2155 133.958 16.7066L132.96 14.9734ZM129.987 18.0525C129.255 19.4078 128.907 20.9693 128.907 22.704H130.907C130.907 21.2387 131.199 20.0162 131.747 19.0035L129.987 18.0525ZM128.907 22.704C128.907 24.4387 129.255 26.0002 129.987 27.3555L131.747 26.4045C131.199 25.3918 130.907 24.1693 130.907 22.704H128.907ZM129.997 27.3736C130.745 28.6906 131.724 29.7338 132.941 30.4712L133.977 28.7608C133.082 28.2182 132.333 27.4374 131.737 26.3864L129.997 27.3736ZM132.971 30.4889C134.204 31.1781 135.524 31.528 136.915 31.528V29.528C135.874 29.528 134.89 29.2699 133.947 28.7431L132.971 30.4889ZM136.915 31.528C138.344 31.528 139.675 31.159 140.889 30.4232L139.853 28.7128C138.955 29.257 137.982 29.528 136.915 29.528V31.528ZM140.878 30.4299C142.134 29.6913 143.122 28.6408 143.843 27.3075L142.083 26.3565C141.524 27.3912 140.784 28.1647 139.864 28.7061L140.878 30.4299ZM143.833 27.3256C144.606 25.9638 144.971 24.3787 144.971 22.608H142.971C142.971 24.1013 142.664 25.3322 142.093 26.3384L143.833 27.3256ZM155.574 15.456L154.688 14.9925L154.683 15.0033L155.574 15.456ZM159.942 10.656L159.426 9.79979L159.419 9.80383L159.942 10.656ZM171.318 10.176L170.841 11.0547L170.849 11.0589L171.318 10.176ZM174.918 13.2L174.113 13.7932L175.918 16.2429V13.2H174.918ZM174.918 9.408V8.408H173.918V9.408H174.918ZM181.686 9.408H182.686V8.408H181.686V9.408ZM181.686 36V37H182.686V36H181.686ZM174.918 36H173.918V37H174.918V36ZM174.918 32.112H175.918V28.9107L174.096 31.5428L174.918 32.112ZM171.318 35.232L171.788 36.1149L171.795 36.1113L171.318 35.232ZM159.942 34.704L159.408 35.5495L159.415 35.5536L159.942 34.704ZM155.574 29.856L154.68 30.3032L154.684 30.3114L154.688 30.3195L155.574 29.856ZM173.958 18.528L173.078 19.0035L173.084 19.0136L173.958 18.528ZM171.366 15.84L170.859 16.7019L170.869 16.7075L170.878 16.7129L171.366 15.84ZM164.406 15.792L163.907 14.9254L163.907 14.9254L164.406 15.792ZM161.814 18.48L160.945 17.9864L160.94 17.9944L161.814 18.48ZM161.814 26.832L160.929 27.2977L160.937 27.3118L160.945 27.3256L161.814 26.832ZM164.406 29.568L163.888 30.4233L163.899 30.4299L164.406 29.568ZM171.366 29.616L171.854 30.4889L171.864 30.4835L171.873 30.4779L171.366 29.616ZM173.958 26.928L174.832 27.4137L174.838 27.4035L173.958 26.928ZM154.99 22.608C154.99 20.0533 155.491 17.8284 156.466 15.9087L154.683 15.0033C153.545 17.2435 152.99 19.7867 152.99 22.608H154.99ZM156.46 15.9195C157.473 13.9835 158.81 12.5247 160.466 11.5082L159.419 9.80383C157.427 11.0273 155.851 12.7685 154.688 14.9925L156.46 15.9195ZM160.459 11.5122C162.151 10.4909 164.035 9.976 166.134 9.976V7.976C163.689 7.976 161.445 8.58111 159.426 9.79981L160.459 11.5122ZM166.134 9.976C167.982 9.976 169.54 10.3478 170.841 11.0546L171.796 9.29737C170.152 8.40424 168.254 7.976 166.134 7.976V9.976ZM170.849 11.0589C172.238 11.7976 173.317 12.7122 174.113 13.7932L175.723 12.6068C174.728 11.2558 173.407 10.1544 171.788 9.29313L170.849 11.0589ZM175.918 13.2V9.408H173.918V13.2H175.918ZM174.918 10.408H181.686V8.408H174.918V10.408ZM180.686 9.408V36H182.686V9.408H180.686ZM181.686 35H174.918V37H181.686V35ZM175.918 36V32.112H173.918V36H175.918ZM174.096 31.5428C173.334 32.6435 172.261 33.5842 170.842 34.3527L171.795 36.1113C173.448 35.2158 174.774 34.0765 175.74 32.6812L174.096 31.5428ZM170.849 34.3491C169.511 35.0604 167.934 35.432 166.086 35.432V37.432C168.207 37.432 170.117 37.0036 171.788 36.1149L170.849 34.3491ZM166.086 35.432C164.028 35.432 162.163 34.9055 160.47 33.8544L159.415 35.5536C161.433 36.8065 163.665 37.432 166.086 37.432V35.432ZM160.476 33.8585C158.814 32.8088 157.474 31.3306 156.46 29.3925L154.688 30.3195C155.85 32.5414 157.422 34.2952 159.408 35.5495L160.476 33.8585ZM156.469 29.4088C155.492 27.4553 154.99 25.1964 154.99 22.608H152.99C152.99 25.4596 153.545 28.0327 154.68 30.3032L156.469 29.4088ZM175.918 22.704C175.918 20.9421 175.572 19.3744 174.832 18.0424L173.084 19.0136C173.624 19.9856 173.918 21.2019 173.918 22.704H175.918ZM174.838 18.0525C174.115 16.7154 173.121 15.6751 171.854 14.9671L170.878 16.7129C171.787 17.2209 172.521 17.9726 173.079 19.0035L174.838 18.0525ZM171.873 14.9781C170.633 14.2488 169.291 13.88 167.862 13.88V15.88C168.93 15.88 169.923 16.1512 170.859 16.7019L171.873 14.9781ZM167.862 13.88C166.444 13.88 165.119 14.2278 163.907 14.9254L164.905 16.6586C165.806 16.1402 166.785 15.88 167.862 15.88V13.88ZM163.907 14.9254C162.679 15.6325 161.694 16.6658 160.945 17.9864L162.684 18.9736C163.278 17.9262 164.021 17.1675 164.905 16.6586L163.907 14.9254ZM160.94 17.9944C160.202 19.3236 159.854 20.8742 159.854 22.608H161.854C161.854 21.1418 162.147 19.9404 162.688 18.9656L160.94 17.9944ZM159.854 22.608C159.854 24.3435 160.202 25.9162 160.929 27.2977L162.699 26.3663C162.146 25.3158 161.854 24.0725 161.854 22.608H159.854ZM160.945 27.3256C161.692 28.6426 162.671 29.6858 163.888 30.4232L164.925 28.7128C164.029 28.1702 163.28 27.3894 162.684 26.3384L160.945 27.3256ZM163.899 30.4299C165.135 31.1567 166.461 31.528 167.862 31.528V29.528C166.832 29.528 165.854 29.2593 164.913 28.7061L163.899 30.4299ZM167.862 31.528C169.281 31.528 170.617 31.1804 171.854 30.4889L170.878 28.7431C169.94 29.2676 168.94 29.528 167.862 29.528V31.528ZM171.873 30.4779C173.122 29.7434 174.11 28.7144 174.832 27.4136L173.084 26.4424C172.527 27.4456 171.787 28.2086 170.859 28.7541L171.873 30.4779ZM174.838 27.4035C175.572 26.0455 175.918 24.467 175.918 22.704H173.918C173.918 24.205 173.624 25.4425 173.079 26.4525L174.838 27.4035ZM196.938 1.92L197.937 1.95311L197.971 0.919998H196.938V1.92ZM196.17 25.104V26.104H197.137L197.169 25.1371L196.17 25.104ZM190.506 25.104L189.506 25.1392L189.54 26.104H190.506V25.104ZM189.69 1.92V0.919998H188.654L188.69 1.95517L189.69 1.92ZM190.458 35.232L189.75 35.9391L189.765 35.9538L189.78 35.9679L190.458 35.232ZM190.458 29.616L191.149 30.338L191.15 30.3374L190.458 29.616ZM196.41 29.616L195.702 30.3231L195.71 30.3306L195.718 30.338L196.41 29.616ZM196.41 35.232L197.101 35.954L197.109 35.9466L197.117 35.9391L196.41 35.232ZM195.938 1.88689L195.17 25.0709L197.169 25.1371L197.937 1.95311L195.938 1.88689ZM196.17 24.104H190.506V26.104H196.17V24.104ZM191.505 25.0688L190.689 1.88482L188.69 1.95517L189.506 25.1392L191.505 25.0688ZM189.69 2.92H196.938V0.919998H189.69V2.92ZM193.482 35.336C192.484 35.336 191.728 35.0417 191.135 34.4961L189.78 35.9679C190.787 36.8943 192.047 37.336 193.482 37.336V35.336ZM191.165 34.5249C190.591 33.9509 190.306 33.264 190.306 32.4H188.306C188.306 33.776 188.788 34.9771 189.75 35.9391L191.165 34.5249ZM190.306 32.4C190.306 31.5365 190.59 30.8745 191.149 30.338L189.766 28.894C188.789 29.8295 188.306 31.0235 188.306 32.4H190.306ZM191.15 30.3374C191.745 29.7662 192.496 29.464 193.482 29.464V27.464C192.035 27.464 190.77 27.9298 189.765 28.8946L191.15 30.3374ZM193.482 29.464C194.427 29.464 195.14 29.7605 195.702 30.3231L197.117 28.9089C196.143 27.9355 194.904 27.464 193.482 27.464V29.464ZM195.718 30.338C196.277 30.8745 196.562 31.5365 196.562 32.4H198.562C198.562 31.0235 198.078 29.8295 197.101 28.894L195.718 30.338ZM196.562 32.4C196.562 33.264 196.276 33.9509 195.702 34.5249L197.117 35.9391C198.079 34.9771 198.562 33.776 198.562 32.4H196.562ZM195.718 34.51C195.157 35.0468 194.439 35.336 193.482 35.336V37.336C194.892 37.336 196.126 36.8892 197.101 35.954L195.718 34.51Z" fill="#6C63FF"/>
</g>
<defs>
<filter id="filter0_d_7_17" x="0.311996" y="0.47998" width="201.249" height="43.952" filterUnits="userSpaceOnUse" color-interpolation-filters="sRGB">
<feFlood flood-opacity="0" result="BackgroundImageFix"/>
<feColorMatrix in="SourceAlpha" type="matrix" values="0 0 0 0 0 0 0 0 0 0 0 0 0 0 0 0 0 0 127 0" result="hardAlpha"/>
<feOffset dy="4"/>
<feGaussianBlur stdDeviation="2"/>
<feComposite in2="hardAlpha" operator="out"/>
<feColorMatrix type="matrix" values="0 0 0 0 0 0 0 0 0 0 0 0 0 0 0 0 0 0 0.25 0"/>
<feBlend mode="normal" in2="BackgroundImageFix" result="effect1_dropShadow_7_17"/>
<feBlend mode="normal" in="SourceGraphic" in2="effect1_dropShadow_7_17" result="shape"/>
</filter>
</defs>
</svg>
